# xmcd
#
# Track frame offsets:
#	150
#	23733
#	62115
#	78286
#	106592
#	142017
#	186222
#	219822
#	249714
#	281149
#	317278
#
# Disc length: 4773 seconds
#
# Revision: 0
# Processed by: cddbd v1.5.2PL0 Copyright (c) Steve Scherf et al.
# Submitted via: audiograbber 1.83.01
#
DISCID=9112a30b
DTITLE=Silvana de Mari (Autor)+Jasmin Tabatabai (Sprecher) - Der letzte Elf(CD0
DTITLE=4v05)
DYEAR=2008
DGENRE=Hörbuch
TTITLE0=401
TTITLE1=402
TTITLE2=403
TTITLE3=404
TTITLE4=405
TTITLE5=406
TTITLE6=407
TTITLE7=408
TTITLE8=409
TTITLE9=410
TTITLE10=411
EXTD=
EXTT0=
EXTT1=
EXTT2=
EXTT3=
EXTT4=
EXTT5=
EXTT6=
EXTT7=
EXTT8=
EXTT9=
EXTT10=
PLAYORDER=
